<?xml version="1.0" encoding="UTF-8"?>
<svg version="1.1" xmlns="http://www.w3.org/2000/svg" width="474" height="84">
<path d="M0 0 C3.96 0 7.92 0 12 0 C12 7.26 12 14.52 12 22 C22.52962937 23.10639595 22.52962937 23.10639595 32.06396484 19.46289062 C37.14498287 14.29896555 41.0645632 8.15846814 44.8359375 2.00390625 C47.51622625 -0.47802178 49.45397981 -0.52093228 53.0390625 -0.43945312 C53.76867187 -0.39755859 54.49828125 -0.35566406 55.25 -0.3125 C55.99507812 -0.28994141 56.74015625 -0.26738281 57.5078125 -0.24414062 C59.339409 -0.18543561 61.16996653 -0.09575757 63 0 C60.16551557 4.43137707 57.07112358 8.40693464 53.625 12.375 C49.55157114 17.12088084 45.67507935 21.93435008 42 27 C46.25810606 32.78068369 50.687851 38.39429566 55.25 43.9375 C55.87390625 44.70384766 56.4978125 45.47019531 57.140625 46.25976562 C57.73875 46.98744141 58.336875 47.71511719 58.953125 48.46484375 C59.49098633 49.120896 60.02884766 49.77694824 60.58300781 50.45288086 C61.9389661 52.11845446 61.9389661 52.11845446 64 53 C64.37040405 51.79621704 64.37040405 51.79621704 64.74829102 50.56811523 C66.270982 46.22754009 68.12354843 42.09462008 70.02734375 37.91015625 C70.41692764 37.04740585 70.80651154 36.18465546 71.207901 35.29576111 C72.44834409 32.55008425 73.69275952 29.80623096 74.9375 27.0625 C76.17788075 24.32198931 77.41742756 21.58110395 78.65638733 18.83995056 C79.42560022 17.13878397 80.1957606 15.43804536 80.96702576 13.73780823 C81.32071732 12.95687302 81.67440887 12.17593781 82.03881836 11.37133789 C82.34589218 10.6943837 82.652966 10.0174295 82.96934509 9.31996155 C84.34352714 6.22673462 85.66668767 3.1110621 87 0 C93.6 0 100.2 0 107 0 C120.61384788 28.89509788 120.61384788 28.89509788 126.875 43.3125 C127.29700684 44.28324463 127.71901367 45.25398926 128.15380859 46.25415039 C131 52.86125106 131 52.86125106 131 54 C126.38 54 121.76 54 117 54 C115.35 50.7 113.7 47.4 112 44 C97.15 43.505 97.15 43.505 82 43 C81.01 45.97 81.01 45.97 80 49 C79.34588315 50.67163195 78.68346682 52.34015202 78 54 C50.37329398 56.2214635 50.37329398 56.2214635 43.48535156 52.72265625 C39.94045976 49.65739988 37.88454241 45.99135664 35.8918457 41.80419922 C34.26113095 38.50527175 32.76735471 36.52407078 30 34 C26.87989225 33.16198019 23.90479941 33.11630381 20.6875 33.125 C17.820625 33.08375 14.95375 33.0425 12 33 C12 39.93 12 46.86 12 54 C8.04 54 4.08 54 0 54 C0 36.18 0 18.36 0 0 Z M97 10 C95.89442408 12.35351368 94.79051018 14.7077841 93.6875 17.0625 C93.2244043 18.04766602 93.2244043 18.04766602 92.75195312 19.05273438 C92.29272461 20.0340332 92.29272461 20.0340332 91.82421875 21.03515625 C91.54666748 21.6269165 91.26911621 22.21867676 90.9831543 22.82836914 C89.60849875 25.86476375 88.31296145 28.93642328 87 32 C93.6 32 100.2 32 107 32 C104.18478087 24.57094952 101.33549014 17.21136695 98 10 C97.67 10 97.34 10 97 10 Z " fill="#FDFDFD" transform="translate(163,14)"/>
<path d="M0 0 C18.81 0 37.62 0 57 0 C57 10 57 10 54.76171875 13.06640625 C53.74722656 13.89011719 52.73273438 14.71382812 51.6875 15.5625 C51.14496582 16.01737793 50.60243164 16.47225586 50.04345703 16.94091797 C48.38364798 18.32288628 46.69574273 19.66251982 45 21 C43.12466896 22.54126397 41.24964911 24.08290667 39.375 25.625 C38.48296875 26.34300781 37.5909375 27.06101562 36.671875 27.80078125 C33.10351844 30.73789345 29.69296591 33.832043 26.2890625 36.95703125 C23.93439145 39.05855507 21.46448903 41.02840877 19 43 C31.54 43.33 44.08 43.66 57 44 C57 47.3 57 50.6 57 54 C37.53 54 18.06 54 -2 54 C-2 44 -2 44 0.0546875 41.37109375 C0.98539062 40.73300781 1.91609375 40.09492187 2.875 39.4375 C3.88304687 38.70402344 4.89109375 37.97054687 5.9296875 37.21484375 C6.94289063 36.48394531 7.95609375 35.75304688 9 35 C10.68843404 33.52454472 12.3561258 32.02494439 14 30.5 C18.33124778 26.55497814 22.80382008 22.82325922 27.359375 19.140625 C30.26190413 16.78768718 33.12958647 14.39201127 36 12 C24.12 11.67 12.24 11.34 0 11 C0 7.37 0 3.74 0 0 Z " fill="#FBFBFB" transform="translate(298,14)"/>
<path d="M0 0 C4.29 0 8.58 0 13 0 C13 7.26 13 14.52 13 22 C25.21 22 37.42 22 50 22 C50 14.74 50 7.48 50 0 C54.29 0 58.58 0 63 0 C63 17.82 63 35.64 63 54 C58.71 54 54.42 54 50 54 C50 47.07 50 40.14 50 33 C37.79 33 25.58 33 13 33 C13 39.93 13 46.86 13 54 C8.71 54 4.42 54 0 54 C0 36.18 0 18.36 0 0 Z " fill="#FDFDFD" transform="translate(68,14)"/>
<path d="M0 0 C6.6 0 13.2 0 20 0 C37.53191489 38.06382979 37.53191489 38.06382979 44 54 C39.38 54 34.76 54 30 54 C25 45.25 25 45.25 25 43 C15.1 43.33 5.2 43.66 -5 44 C-6.65 47.3 -8.3 50.6 -10 54 C-14.62 54 -19.24 54 -24 54 C-16.37230294 35.82995741 -8.19745046 17.91774745 0 0 Z M9 11 C7.49699373 14.31114413 5.99810044 17.62413372 4.5 20.9375 C4.07074219 21.88302734 3.64148438 22.82855469 3.19921875 23.80273438 C2.79316406 24.70185547 2.38710938 25.60097656 1.96875 26.52734375 C1.59169922 27.35999756 1.21464844 28.19265137 0.82617188 29.05053711 C-0.0650334 30.80057141 -0.0650334 30.80057141 0 32 C6.6 32 13.2 32 20 32 C17.03 25.07 14.06 18.14 11 11 C10.34 11 9.68 11 9 11 Z " fill="#FCFCFC" transform="translate(407,14)"/>
<path d="M0 0 C0.83213013 0.00424484 1.66426025 0.00848969 2.52160645 0.01286316 C5.15016593 0.02950568 7.77792667 0.06712899 10.40625 0.10546875 C12.20050967 0.12053431 13.9947815 0.13421942 15.7890625 0.14648438 C20.16176083 0.17936161 24.53387053 0.23104153 28.90625 0.29296875 C28.90625 3.59296875 28.90625 6.89296875 28.90625 10.29296875 C28.0090625 10.30755127 27.111875 10.32213379 26.1875 10.3371582 C22.824943 10.39859955 19.46315297 10.47282005 16.10107422 10.55541992 C14.65228719 10.58845678 13.20337801 10.6165533 11.75439453 10.6394043 C-1.16429278 10.64482956 -1.16429278 10.64482956 -12.53125 16.23046875 C-16.18237223 21.04995009 -15.55404169 27.51840025 -15.09375 33.29296875 C-13.78575252 37.14811922 -12.87345462 38.7276829 -9.59375 41.10546875 C-5.12337867 43.22889513 -1.22456633 43.49781025 3.63671875 43.609375 C4.38713943 43.6301561 5.13756012 43.65093719 5.91072083 43.67234802 C8.30497184 43.73766801 10.69933139 43.79664667 13.09375 43.85546875 C14.71811013 43.89867068 16.34245933 43.94228551 17.96679688 43.98632812 C21.94650371 44.09333138 25.92631958 44.19464812 29.90625 44.29296875 C29.90625 47.92296875 29.90625 51.55296875 29.90625 55.29296875 C25.28388884 55.36805709 20.66189553 55.42200537 16.0390625 55.45776367 C14.47194217 55.47269627 12.90486246 55.4930499 11.33789062 55.51928711 C-12.96879558 55.91559178 -12.96879558 55.91559178 -22.47265625 47.97265625 C-28.6175371 41.60567127 -29.40625 34.67582569 -29.40625 26.15039062 C-29.25730836 19.14336344 -27.93580659 13.60660553 -23.328125 8.234375 C-16.4311778 1.70399783 -9.24770071 -0.18127314 0 0 Z " fill="#FDFDFD" transform="translate(31.09375,13.70703125)"/>
<path d="M0 0 C4.29 0 8.58 0 13 0 C13 17.82 13 35.64 13 54 C8.71 54 4.42 54 0 54 C0 36.18 0 18.36 0 0 Z " fill="#F9F9F9" transform="translate(456,14)"/>
<path d="M0 0 C4.29 0 8.58 0 13 0 C13 17.82 13 35.64 13 54 C8.71 54 4.42 54 0 54 C0 36.18 0 18.36 0 0 Z " fill="#FCFCFC" transform="translate(140,14)"/>
</svg>
